<svg width="1519" height="117" viewBox="0 0 1519 117" fill="none" xmlns="http://www.w3.org/2000/svg">
<path d="M50 66.1287L153.909 51.0872C163.471 49.703 173.183 49.7119 182.743 51.1136L270.795 64.0241C280.314 65.4198 289.985 65.4345 299.508 64.0677L390.199 51.052C399.681 49.6911 409.311 49.6998 418.791 51.078L508.03 64.0507C517.51 65.4289 527.139 65.4376 536.622 64.0766L627.374 51.052C636.857 49.6911 646.486 49.6998 655.966 51.078L745.206 64.0507C754.686 65.4289 764.315 65.4376 773.798 64.0766L864.55 51.052C874.033 49.6911 883.662 49.6998 893.142 51.078L982.381 64.0507C991.862 65.4289 1001.49 65.4376 1010.97 64.0766L1101.73 51.052C1111.21 49.6911 1120.84 49.6998 1130.32 51.078L1219.5 64.0418C1229.02 65.4258 1238.69 65.4287 1248.21 64.0504L1337.76 51.0872C1347.32 49.703 1357.03 49.7119 1366.59 51.1136L1469 66.1287" stroke="url(#paint0_linear_213_1050)" stroke-width="100" stroke-linecap="round"/>
<defs>
<linearGradient id="paint0_linear_213_1050" x1="-46.0781" y1="49" x2="395.288" y2="-920.61" gradientUnits="userSpaceOnUse">
<stop stop-color="#F4C5DF"/>
<stop offset="0.138156" stop-color="#DD47C2"/>
<stop offset="0.574794" stop-color="#641BFF"/>
<stop offset="1" stop-color="#0E0B11"/>
</linearGradient>
</defs>
</svg>
