<svg width="179" height="268" viewBox="0 0 179 268" fill="none" xmlns="http://www.w3.org/2000/svg">
<rect width="179" height="268" rx="4" fill="#D6D6D6"/>
<path d="M78.5 139.5L84.8055 133.195C85.8794 132.121 87.6206 132.121 88.6945 133.195L95 139.5M92.25 136.75L94.4305 134.57C95.5044 133.496 97.2456 133.496 98.3195 134.57L100.5 136.75M92.25 128.5H92.2638M81.25 145H97.75C99.2688 145 100.5 143.769 100.5 142.25V125.75C100.5 124.231 99.2688 123 97.75 123H81.25C79.7312 123 78.5 124.231 78.5 125.75V142.25C78.5 143.769 79.7312 145 81.25 145Z" stroke="#919191" stroke-width="2" stroke-linecap="round" stroke-linejoin="round"/>
</svg>
