<svg width="1920" height="1080" viewBox="0 0 1920 1080" fill="none" xmlns="http://www.w3.org/2000/svg">
<rect width="1920" height="1080" rx="8" fill="#F7F3FA"/>
<path d="M1120.67 533.804C1108.3 533.804 1099.09 524.841 1099.09 512.309C1099.09 500.607 1107.47 491.063 1119.67 491.063C1131.95 491.063 1139.59 499.943 1139.59 511.313V514.633H1107.06C1107.97 521.604 1113.28 526.501 1120.58 526.501C1125.56 526.501 1130.04 524.343 1132.45 519.861L1138.76 523.098C1135.19 530.07 1128.63 533.804 1120.67 533.804ZM1107.39 509.321H1131.37C1131.04 502.848 1126.31 498.449 1119.59 498.449C1112.7 498.449 1108.22 503.263 1107.39 509.321Z" fill="#0E0B11"/>
<path d="M1075.11 491.063C1087.4 491.063 1094.03 500.192 1094.03 511.479V532.891H1085.82V512.807C1085.82 505.421 1082.17 498.947 1074.53 498.947C1067.15 498.947 1063.41 505.172 1063.41 512.641V532.891H1055.19V512.641C1055.19 505.172 1051.46 498.947 1043.91 498.947C1036.27 498.947 1032.87 505.421 1032.87 512.807V532.891H1024.65V511.562C1024.65 500.192 1031.13 491.063 1043.33 491.063C1051.46 491.063 1057.35 495.212 1059.43 501.52C1061.67 495.212 1067.39 491.063 1075.11 491.063Z" fill="#0E0B11"/>
<path d="M1010.7 492.225H1018.91V532.891H1010.7V492.225Z" fill="#0E0B11"/>
<path d="M953.355 551.44C944.723 551.44 937.586 547.789 933.934 540.568L940.74 536.833C943.064 541.232 947.628 543.805 953.189 543.805C961.82 543.805 966.302 537.331 966.302 528.534V524.965C963.895 529.53 959.579 532.269 953.438 532.269C940.989 532.269 934.93 524.053 934.93 512.102V491.021H943.064V511.687C943.064 519.322 947.047 524.55 954.434 524.55C961.571 524.55 966.219 518.575 966.219 511.106V491.021H974.518V528.451C974.518 542.062 966.551 551.44 953.355 551.44Z" fill="#0E0B11"/>
<path d="M906.021 532.891H914.237V508.989C914.237 503.014 917.557 499.279 923.035 499.279H929.282V491.395H922.288C911.665 491.395 906.021 498.781 906.021 508.657V532.891Z" fill="#0E0B11"/>
<path d="M880.08 533.887C867.797 533.887 858.336 524.26 858.336 512.475C858.336 500.773 867.88 491.229 880.08 491.229C892.363 491.229 901.658 500.856 901.658 512.475C901.658 524.26 892.28 533.887 880.08 533.887ZM880.08 526.086C887.633 526.086 893.442 519.944 893.442 512.558C893.442 505.088 887.633 498.947 880.08 498.947C872.445 498.947 866.552 505.088 866.552 512.558C866.552 519.944 872.445 526.086 880.08 526.086Z" fill="#0E0B11"/>
<path d="M832.749 518.284C832.749 527.58 838.143 533.97 848.268 533.97H856.568V526.501H849.015C844.119 526.501 840.965 523.347 840.965 518.035V499.362H856.568V492.224H840.965V481.684H832.749V492.224H823.444V499.362H832.749V518.284Z" fill="#0E0B11"/>
<path d="M800.994 534.413C791.615 534.413 783.731 530.18 780.411 522.545L787.549 519.059C789.707 523.873 794.437 526.446 800.994 526.446C807.467 526.446 812.447 523.375 812.447 517.897C812.447 511.756 806.803 510.677 800.247 509.432C791.864 507.772 781.49 505.033 781.49 493.248C781.49 484.036 789.873 477.065 800.413 477.065C808.878 477.065 816.43 481.048 819.75 488.684L812.696 492.335C810.455 487.771 806.222 484.949 800.081 484.949C794.437 484.949 789.873 488.269 789.873 492.999C789.873 498.975 795.765 500.303 802.488 501.631C810.787 503.291 820.912 506.029 820.912 517.814C820.912 527.608 812.198 534.413 800.994 534.413Z" fill="#0E0B11"/>
<path d="M980.457 518.284C980.457 527.58 985.851 533.97 995.976 533.97H1004.28V526.501H996.723C991.827 526.501 988.673 523.347 988.673 518.035V499.362H1004.28V492.224H988.673V481.684H980.457V492.224V499.362V518.284Z" fill="#0E0B11"/>
<path d="M782.156 551.065C921.17 551.065 954.507 555.214 954.507 602.935C954.507 555.214 984.908 551.065 1117.7 551.065H1137.56" stroke="url(#paint0_linear_68_774)" stroke-width="9" stroke-linejoin="bevel"/>
<defs>
<linearGradient id="paint0_linear_68_774" x1="782.411" y1="550.977" x2="1128.05" y2="491.505" gradientUnits="userSpaceOnUse">
<stop stop-color="#F4C5DF"/>
<stop offset="0.138156" stop-color="#DD47C2"/>
<stop offset="0.574794" stop-color="#641BFF"/>
<stop offset="1" stop-color="#0E0B11"/>
</linearGradient>
</defs>
</svg>
