<svg width="109" height="16" viewBox="0 0 109 16" fill="none" xmlns="http://www.w3.org/2000/svg">
<path d="M90.1242 11.827C88.6693 11.827 87.5502 11.2515 86.9426 10.0844L88.1577 9.41287C88.5574 10.1963 89.1969 10.4841 90.0603 10.4841C90.9556 10.4841 91.6431 10.1163 91.6431 9.42886C91.6431 7.78211 87.1505 9.02916 87.1505 6.03942C87.1505 4.66446 88.3656 3.65723 90.0763 3.65723C91.5312 3.65723 92.5224 4.32872 93.018 5.24003L91.803 5.92751C91.4672 5.24003 90.8277 5.00021 90.1082 5.00021C89.3728 5.00021 88.7333 5.38392 88.7333 6.00745C88.7333 7.60624 93.2259 6.43912 93.2259 9.39689C93.2259 10.8838 91.787 11.827 90.1242 11.827Z" fill="#0E0B11"/>
<path d="M80.8006 11.651H79.2178V0.203613H80.8006V7.07841H81.7598C81.8398 6.88656 81.9677 6.71069 82.1276 6.55081L84.6377 3.81688H86.5722L83.1988 7.4941C83.1028 7.57404 83.0549 7.63799 83.0549 7.71793C83.0549 7.79787 83.1028 7.86182 83.1988 7.94176L86.5562 11.651H84.6057L82.1116 8.91702C81.9517 8.72517 81.8238 8.53331 81.7439 8.32547H80.8006V11.651Z" fill="#0E0B11"/>
<path d="M73.7728 11.8428C71.4066 11.8428 69.584 9.98819 69.584 7.71791C69.584 5.46361 71.4226 3.625 73.7728 3.625C76.139 3.625 77.9297 5.4796 77.9297 7.71791C77.9297 9.98819 76.123 11.8428 73.7728 11.8428ZM73.7728 10.3399C75.2277 10.3399 76.3469 9.15682 76.3469 7.73389C76.3469 6.29498 75.2277 5.11188 73.7728 5.11188C72.3019 5.11188 71.1668 6.29498 71.1668 7.73389C71.1668 9.15682 72.3019 10.3399 73.7728 10.3399Z" fill="#0E0B11"/>
<path d="M64.9545 11.8428C62.5882 11.8428 60.7656 9.98819 60.7656 7.71791C60.7656 5.46361 62.6042 3.625 64.9545 3.625C67.3207 3.625 69.1113 5.4796 69.1113 7.71791C69.1113 9.98819 67.3047 11.8428 64.9545 11.8428ZM64.9545 10.3399C66.4094 10.3399 67.5285 9.15682 67.5285 7.73389C67.5285 6.29498 66.4094 5.11188 64.9545 5.11188C63.4836 5.11188 62.3484 6.29498 62.3484 7.73389C62.3484 9.15682 63.4836 10.3399 64.9545 10.3399Z" fill="#0E0B11"/>
<path d="M55.5538 11.6509H51.8766V0.938965H55.6337C58.2558 0.938965 59.8546 1.97818 59.8546 3.78481C59.8546 5.09582 59.1511 5.94318 58.0159 6.29491C59.247 6.5827 60.0144 7.31814 60.0144 8.6931C60.0144 10.9154 58.0479 11.6509 55.5538 11.6509ZM53.5074 2.29794V5.63941H55.6817C57.4724 5.63941 58.2238 5.09582 58.2238 3.89673C58.2238 2.84153 57.2965 2.29794 55.7137 2.29794H53.5074ZM53.5074 6.99838V10.2919H55.6337C57.1046 10.2919 58.3837 10.0041 58.3837 8.58119C58.3837 7.41407 57.5203 6.99838 55.6817 6.99838H53.5074Z" fill="#0E0B11"/>
<path d="M44.2754 0.219727H45.8582V11.6511H44.2754V0.219727Z" fill="#0E0B11"/>
<path d="M40.5938 0.219727H42.1766V11.6511H40.5938V0.219727Z" fill="#0E0B11"/>
<path d="M34.3935 11.8428C32.1232 11.8428 30.4604 9.98819 30.4604 7.71791C30.4604 5.4796 32.2511 3.625 34.6333 3.625C36.9995 3.625 38.8061 5.38367 38.8061 7.71791V11.6509H37.3033V10.276C36.7117 11.2352 35.6725 11.8428 34.3935 11.8428ZM34.6333 10.3399C36.1042 10.3399 37.2233 9.15682 37.2233 7.73389C37.2233 6.29498 36.1042 5.11188 34.6333 5.11188C33.1784 5.11188 32.0433 6.29498 32.0433 7.73389C32.0433 9.15682 33.1784 10.3399 34.6333 10.3399Z" fill="#0E0B11"/>
<path d="M22.4609 11.827C20.0787 11.827 18.3041 10.1003 18.3041 7.68617C18.3041 5.43187 19.9189 3.59326 22.2691 3.59326C24.6353 3.59326 26.1062 5.30397 26.1062 7.49431V8.13383H19.8389C20.0148 9.47681 21.038 10.4201 22.4449 10.4201C23.4042 10.4201 24.2676 10.0044 24.7312 9.14107L25.9463 9.76459C25.2588 11.1076 23.9958 11.827 22.4609 11.827ZM19.9029 7.1106H24.5234C24.4594 5.86354 23.5481 5.01618 22.2531 5.01618C20.9261 5.01618 20.0627 5.94348 19.9029 7.1106Z" fill="#0E0B11"/>
<path d="M14.064 11.827C11.6818 11.827 9.9071 10.1003 9.9071 7.68617C9.9071 5.43187 11.5219 3.59326 13.8721 3.59326C16.2383 3.59326 17.7092 5.30397 17.7092 7.49431V8.13383H11.4419C11.6178 9.47681 12.641 10.4201 14.048 10.4201C15.0072 10.4201 15.8706 10.0044 16.3342 9.14107L17.5493 9.76459C16.8618 11.1076 15.5988 11.827 14.064 11.827ZM11.5059 7.1106H16.1264C16.0624 5.86354 15.1511 5.01618 13.8561 5.01618C12.5291 5.01618 11.6658 5.94348 11.5059 7.1106Z" fill="#0E0B11"/>
<path d="M5.37113 11.8269C3.5645 11.8269 2.04564 11.0116 1.40613 9.54067L2.78109 8.86918C3.19677 9.79648 4.10808 10.2921 5.37113 10.2921C6.61819 10.2921 7.57746 9.70055 7.57746 8.64535C7.57746 7.46224 6.49028 7.2544 5.22724 7.01458C3.61246 6.69482 1.61397 6.16722 1.61397 3.89694C1.61397 2.12228 3.22875 0.779297 5.25921 0.779297C6.88998 0.779297 8.34488 1.54672 8.9844 3.0176L7.62542 3.72107C7.19375 2.84174 6.37837 2.29815 5.19526 2.29815C4.10808 2.29815 3.22875 2.93766 3.22875 3.84897C3.22875 5.0001 4.36389 5.25591 5.65891 5.51172C7.2577 5.83148 9.20823 6.35908 9.20823 8.62936C9.20823 10.5159 7.5295 11.8269 5.37113 11.8269Z" fill="#0E0B11"/>
<path fill-rule="evenodd" clip-rule="evenodd" d="M0.110718 14.4516L93.0013 14.4516C94.8062 14.4516 96.2694 12.9884 96.2694 11.1835C96.2694 8.63617 98.3344 6.57114 100.882 6.57114L105.467 6.57114C104.904 5.84304 104.603 4.8347 104.425 3.56638L105.757 3.37969C105.957 4.8109 106.289 5.55656 106.73 5.9684C107.156 6.36685 107.815 6.57114 109 6.57114L109 7.91545C107.856 7.91545 107.208 8.12438 106.781 8.52927C106.337 8.95068 105.999 9.70667 105.789 11.1254L104.459 10.9283C104.647 9.65636 104.96 8.64539 105.529 7.91545L100.882 7.91545C99.0769 7.91545 97.6137 9.37861 97.6137 11.1835C97.6137 13.7309 95.5487 15.7959 93.0013 15.7959L0.110718 15.7959L0.110718 14.4516Z" fill="url(#paint0_linear_127_1162)"/>
<defs>
<linearGradient id="paint0_linear_127_1162" x1="109.014" y1="15.8567" x2="18.8751" y2="15.8567" gradientUnits="userSpaceOnUse">
<stop stop-color="#F4C5DF"/>
<stop offset="0.2" stop-color="#DD47C2"/>
<stop offset="0.740372" stop-color="#641BFF"/>
<stop offset="1" stop-color="#0E0B11"/>
</linearGradient>
</defs>
</svg>
