<svg width="88" height="28" viewBox="0 0 88 28" fill="none" xmlns="http://www.w3.org/2000/svg">
<path d="M82.7687 14.0981C79.7848 14.0981 77.5619 11.9353 77.5619 8.91137C77.5619 6.08768 79.5845 3.78467 82.5284 3.78467C85.4923 3.78467 87.3347 5.92747 87.3347 8.67105V9.4721H79.4844C79.7047 11.1543 80.9864 12.3358 82.7487 12.3358C83.9502 12.3358 85.0317 11.8152 85.6124 10.7337L87.1344 11.5148C86.2733 13.197 84.6912 14.0981 82.7687 14.0981ZM79.5645 8.19043H85.3521C85.272 6.62838 84.1305 5.567 82.5084 5.567C80.8462 5.567 79.7648 6.72851 79.5645 8.19043Z" fill="#0E0B11"/>
<path d="M71.7761 3.78467C74.74 3.78467 76.3421 5.98755 76.3421 8.7111V13.8779H74.3595V9.03152C74.3595 7.24919 73.4784 5.68715 71.6359 5.68715C69.8536 5.68715 68.9524 7.18912 68.9524 8.99147V13.8779H66.9698V8.99147C66.9698 7.18912 66.0687 5.68715 64.2463 5.68715C62.4039 5.68715 61.5828 7.24919 61.5828 9.03152V13.8779H59.6002V8.73113C59.6002 5.98755 61.1623 3.78467 64.1061 3.78467C66.0687 3.78467 67.4905 4.78598 67.9912 6.30796C68.5319 4.78598 69.9137 3.78467 71.7761 3.78467Z" fill="#0E0B11"/>
<path d="M56.2325 4.0647H58.2151V13.8775H56.2325V4.0647Z" fill="#0E0B11"/>
<path d="M42.396 18.3537C40.3132 18.3537 38.591 17.4726 37.7098 15.7303L39.352 14.8291C39.9127 15.8905 41.0142 16.5113 42.3559 16.5113C44.4386 16.5113 45.52 14.9493 45.52 12.8265V11.9654C44.9393 13.0668 43.8979 13.7277 42.416 13.7277C39.4121 13.7277 37.9502 11.7451 37.9502 8.8613V3.77466H39.9127V8.76117C39.9127 10.6036 40.874 11.8652 42.6563 11.8652C44.3786 11.8652 45.5 10.4233 45.5 8.62099V3.77466H47.5026V12.8065C47.5026 16.0907 45.5801 18.3537 42.396 18.3537Z" fill="#0E0B11"/>
<path d="M30.9749 13.8776H32.9574V8.11005C32.9574 6.66816 33.7585 5.76699 35.0802 5.76699H36.5877V3.8645H34.9C32.3366 3.8645 30.9749 5.64683 30.9749 8.02994V13.8776Z" fill="#0E0B11"/>
<path d="M24.7151 14.1179C21.7512 14.1179 19.4683 11.7949 19.4683 8.95116C19.4683 6.12747 21.7713 3.82446 24.7151 3.82446C27.679 3.82446 29.9219 6.1475 29.9219 8.95116C29.9219 11.7949 27.659 14.1179 24.7151 14.1179ZM24.7151 12.2355C26.5375 12.2355 27.9393 10.7535 27.9393 8.97119C27.9393 7.16883 26.5375 5.6869 24.7151 5.6869C22.8727 5.6869 21.4509 7.16883 21.4509 8.97119C21.4509 10.7535 22.8727 12.2355 24.7151 12.2355Z" fill="#0E0B11"/>
<path d="M13.294 10.3533C13.294 12.5962 14.5957 14.1382 17.0389 14.1382H19.0415V12.3359H17.2191C16.0376 12.3359 15.2766 11.5749 15.2766 10.2932V5.7873H19.0415V4.06505H15.2766V1.52173H13.294V4.06505H11.0488V5.7873H13.294V10.3533Z" fill="#0E0B11"/>
<path d="M5.63177 14.2448C3.36882 14.2448 1.46633 13.2235 0.665283 11.3811L2.38753 10.54C2.90821 11.7015 4.04971 12.3223 5.63177 12.3223C7.19381 12.3223 8.39538 11.5813 8.39538 10.2596C8.39538 8.77767 7.0336 8.51733 5.45154 8.21694C3.42889 7.81642 0.925623 7.15555 0.925623 4.31184C0.925623 2.08894 2.94827 0.406738 5.49159 0.406738C7.53426 0.406738 9.35664 1.36799 10.1577 3.2104L8.45546 4.09155C7.91476 2.99011 6.89342 2.30922 5.41148 2.30922C4.04971 2.30922 2.94827 3.11027 2.94827 4.25176C2.94827 5.69364 4.37012 6.01406 5.99224 6.33448C7.99486 6.73501 10.4381 7.39587 10.4381 10.2396C10.4381 12.6027 8.3353 14.2448 5.63177 14.2448Z" fill="#0E0B11"/>
<path d="M48.9362 10.3533C48.9362 12.5962 50.2379 14.1382 52.6811 14.1382H54.6837V12.3359H52.8613C51.6797 12.3359 50.9187 11.5749 50.9187 10.2932V5.7873H54.6837V4.06505H50.9187V1.52173H48.9362V4.06505V5.7873V10.3533Z" fill="#0E0B11"/>
<path d="M1 18.5933C34.6381 18.5933 42.705 19.3133 42.705 27.5933C42.705 19.3133 50.0613 18.5933 82.1933 18.5933H87" stroke="url(#paint0_linear_127_1136)" stroke-width="1.78755" stroke-linejoin="bevel"/>
<defs>
<linearGradient id="paint0_linear_127_1136" x1="1.06179" y1="18.5781" x2="82.4866" y2="-0.960912" gradientUnits="userSpaceOnUse">
<stop stop-color="#F4C5DF"/>
<stop offset="0.138156" stop-color="#DD47C2"/>
<stop offset="0.574794" stop-color="#641BFF"/>
<stop offset="1" stop-color="#0E0B11"/>
</linearGradient>
</defs>
</svg>
