<svg width="612" height="127" viewBox="0 0 612 127" fill="none" xmlns="http://www.w3.org/2000/svg">
<path d="M579.364 96.7675C558.324 96.7675 542.65 81.5171 542.65 60.1948C542.65 40.2845 556.912 24.0457 577.67 24.0457C598.568 24.0457 611.559 39.1548 611.559 58.5003V64.1486H556.206C557.759 76.01 566.797 84.3413 579.223 84.3413C587.695 84.3413 595.32 80.6699 599.415 73.0447L610.147 78.5517C604.075 90.4132 592.92 96.7675 579.364 96.7675ZM556.771 55.1113H597.58C597.015 44.0971 588.966 36.6131 577.528 36.6131C565.808 36.6131 558.183 44.8032 556.771 55.1113Z" fill="#0E0B11"/>
<path d="M501.854 24.0457C522.753 24.0457 534.049 39.5785 534.049 58.7827V95.2142H520.07V61.042C520.07 48.4745 513.857 37.4604 500.866 37.4604C488.298 37.4604 481.944 48.0509 481.944 60.7596V95.2142H467.964V60.7596C467.964 48.0509 461.61 37.4604 448.76 37.4604C435.769 37.4604 429.979 48.4745 429.979 61.042V95.2142H416V58.9239C416 39.5785 427.014 24.0457 447.772 24.0457C461.61 24.0457 471.636 31.106 475.166 41.8378C478.978 31.106 488.722 24.0457 501.854 24.0457Z" fill="#0E0B11"/>
<path d="M392.254 26.02H406.234V95.2117H392.254V26.02Z" fill="#0E0B11"/>
<path d="M294.69 126.774C280.004 126.774 267.86 120.561 261.647 108.276L273.226 101.921C277.18 109.405 284.946 113.783 294.407 113.783C309.093 113.783 316.718 102.769 316.718 87.8006V81.7287C312.623 89.4951 305.28 94.155 294.831 94.155C273.65 94.155 263.342 80.1754 263.342 59.8415V23.9749H277.18V59.1355C277.18 72.1266 283.958 81.0227 296.525 81.0227C308.669 81.0227 316.577 70.8557 316.577 58.1471V23.9749H330.698V87.6594C330.698 110.817 317.142 126.774 294.69 126.774Z" fill="#0E0B11"/>
<path d="M214.158 95.2121H228.138V54.5444C228.138 44.3774 233.786 38.0231 243.106 38.0231H253.735V24.6084H241.835C223.76 24.6084 214.158 37.1759 214.158 53.9796V95.2121Z" fill="#0E0B11"/>
<path d="M170.02 96.9066C149.121 96.9066 133.024 80.5265 133.024 60.475C133.024 40.5648 149.262 24.3259 170.02 24.3259C190.919 24.3259 206.734 40.706 206.734 60.475C206.734 80.5265 190.777 96.9066 170.02 96.9066ZM170.02 83.6331C182.87 83.6331 192.754 73.1837 192.754 60.6163C192.754 47.9076 182.87 37.4582 170.02 37.4582C157.029 37.4582 147.003 47.9076 147.003 60.6163C147.003 73.1837 157.029 83.6331 170.02 83.6331Z" fill="#0E0B11"/>
<path d="M89.4872 70.3606C89.4872 86.1759 98.6657 97.0489 115.893 97.0489H130.014V84.3402H117.164C108.833 84.3402 103.467 78.9743 103.467 69.937V38.1653H130.014V26.0215H103.467V8.08813H89.4872V26.0215H73.6564V38.1653H89.4872V70.3606Z" fill="#0E0B11"/>
<path d="M35.4601 97.8009C19.5037 97.8009 6.08897 90.5993 0.440674 77.6083L12.5845 71.6775C16.2559 79.8676 24.3047 84.245 35.4601 84.245C46.4743 84.245 54.9468 79.0203 54.9468 69.7006C54.9468 59.2513 45.3447 57.4156 34.1893 55.2975C19.9273 52.4733 2.27637 47.8135 2.27637 27.762C2.27637 12.088 16.5383 0.226562 34.4717 0.226562C48.8748 0.226562 61.7247 7.00451 67.373 19.9956L55.3704 26.2087C51.5578 18.4423 44.3562 13.6413 33.9068 13.6413C24.3047 13.6413 16.5383 19.2896 16.5383 27.3384C16.5383 37.5053 26.5641 39.7646 38.0019 42.024C52.1226 44.8481 69.3499 49.508 69.3499 69.5594C69.3499 86.2219 54.5231 97.8009 35.4601 97.8009Z" fill="#0E0B11"/>
<path d="M340.806 70.3606C340.806 86.1759 349.984 97.0489 367.211 97.0489H381.332V84.3402H368.482C360.151 84.3402 354.785 78.9743 354.785 69.937V38.1653H381.332V26.0215H354.785V8.08813H340.806V26.0215V38.1653V70.3606Z" fill="#0E0B11"/>
</svg>
