<svg width="32" height="32" viewBox="0 0 32 32" fill="none" xmlns="http://www.w3.org/2000/svg">
<path d="M12.7992 14.4C15.4502 14.4 17.5992 12.251 17.5992 9.60005C17.5992 6.94908 15.4502 4.80005 12.7992 4.80005C10.1483 4.80005 7.99922 6.94908 7.99922 9.60005C7.99922 12.251 10.1483 14.4 12.7992 14.4Z" fill="#F764CC"/>
<path d="M12.7992 17.6C18.1012 17.6 22.3992 21.8981 22.3992 27.2001H3.19922C3.19922 21.8981 7.49728 17.6 12.7992 17.6Z" fill="#F764CC"/>
<path d="M25.5992 11.2C25.5992 10.3164 24.8829 9.60005 23.9992 9.60005C23.1156 9.60005 22.3992 10.3164 22.3992 11.2V12.8H20.7992C19.9156 12.8 19.1992 13.5164 19.1992 14.4C19.1992 15.2837 19.9156 16 20.7992 16H22.3992V17.6C22.3992 18.4837 23.1156 19.2001 23.9992 19.2001C24.8829 19.2001 25.5992 18.4837 25.5992 17.6V16H27.1992C28.0829 16 28.7992 15.2837 28.7992 14.4C28.7992 13.5164 28.0829 12.8 27.1992 12.8H25.5992V11.2Z" fill="#F764CC"/>
</svg>
