<svg width="58" height="30" viewBox="0 0 58 30" fill="none" xmlns="http://www.w3.org/2000/svg">
<rect x="1" y="1" width="56" height="28" rx="14" stroke="url(#paint0_linear_260_1503)" stroke-width="2"/>
<path fill-rule="evenodd" clip-rule="evenodd" d="M24.4261 8.6H24.3758L24.1845 7.64311C24.1097 7.26917 23.7813 7 23.4 7H21.8C21.3582 7 21 7.35817 21 7.8C21 8.24183 21.3582 8.6 21.8 8.6H22.7442L24.1316 15.5371L22.6 17.0686C21.8324 17.8362 22.0634 19.0187 22.8467 19.539C22.6887 19.8589 22.6 20.2191 22.6 20.6C22.6 21.9255 23.6745 23 25 23C26.3255 23 27.4 21.9255 27.4 20.6C27.4 20.3195 27.3519 20.0502 27.2634 19.8H30.7366C30.6481 20.0502 30.6 20.3195 30.6 20.6C30.6 21.9255 31.6745 23 33 23C34.3255 23 35.4 21.9255 35.4 20.6C35.4 19.2745 34.3255 18.2 33 18.2L23.7314 18.2L25.3314 16.6H33C33.303 16.6 33.58 16.4288 33.7155 16.1578L36.9155 9.75777C37.0395 9.50978 37.0263 9.21527 36.8805 8.97942C36.7348 8.74356 36.4773 8.6 36.2 8.6H35.88L34.8334 10.3443L32.5056 15H25.6558L24.6958 10.2H24.7739L24.4261 8.6ZM24.2 20.6C24.2 20.1582 24.5582 19.8 25 19.8C25.4418 19.8 25.8 20.1582 25.8 20.6C25.8 21.0418 25.4418 21.4 25 21.4C24.5582 21.4 24.2 21.0418 24.2 20.6ZM32.2 20.6C32.2 20.1582 32.5582 19.8 33 19.8C33.4418 19.8 33.8 20.1582 33.8 20.6C33.8 21.0418 33.4418 21.4 33 21.4C32.5582 21.4 32.2 21.0418 32.2 20.6Z" fill="#0E0B11"/>
<path fill-rule="evenodd" clip-rule="evenodd" d="M32.2 10.88H27.4V9.52H32.2V10.88Z" fill="#0E0B11"/>
<path fill-rule="evenodd" clip-rule="evenodd" d="M30.48 7.8V12.6H29.12V7.8H30.48Z" fill="#0E0B11"/>
<path fill-rule="evenodd" clip-rule="evenodd" d="M25.8 10.2H23.4V8.6H25.8V10.2Z" fill="#0E0B11"/>
<path fill-rule="evenodd" clip-rule="evenodd" d="M36.2 10.2H33.8V8.6H36.2L36.2 10.2Z" fill="#0E0B11"/>
<defs>
<linearGradient id="paint0_linear_260_1503" x1="-10.6842" y1="5.69045e-09" x2="136.553" y2="-10.9543" gradientUnits="userSpaceOnUse">
<stop stop-color="#F4C5DF"/>
<stop offset="0.281992" stop-color="#DD47C2"/>
<stop offset="0.574794" stop-color="#641BFF"/>
<stop offset="1" stop-color="#0E0B11"/>
</linearGradient>
</defs>
</svg>
