<svg width="12" height="12" viewBox="0 0 12 12" fill="none" xmlns="http://www.w3.org/2000/svg">
<path d="M2.0013 5.99992H0.667969M2.0013 5.99992C2.0013 6.7363 2.59826 7.33325 3.33464 7.33325C4.07101 7.33325 4.66797 6.7363 4.66797 5.99992M2.0013 5.99992C2.0013 5.26354 2.59826 4.66659 3.33464 4.66659C4.07101 4.66659 4.66797 5.26354 4.66797 5.99992M10.0013 9.99992C10.0013 9.26354 9.40435 8.66659 8.66797 8.66659C7.93159 8.66659 7.33464 9.26354 7.33464 9.99992M10.0013 9.99992C10.0013 10.7363 9.40435 11.3333 8.66797 11.3333C7.93159 11.3333 7.33464 10.7363 7.33464 9.99992M10.0013 9.99992H11.3346M7.33464 9.99992H0.667969M4.66797 5.99992L11.3346 5.99992M10.0013 1.99992C10.0013 1.26354 9.40435 0.666586 8.66797 0.666586C7.93159 0.666586 7.33464 1.26354 7.33464 1.99992M10.0013 1.99992C10.0013 2.7363 9.40435 3.33325 8.66797 3.33325C7.93159 3.33325 7.33464 2.7363 7.33464 1.99992M10.0013 1.99992H11.3346M7.33464 1.99992H0.667969" stroke="black" stroke-linecap="round" stroke-linejoin="round"/>
</svg>
