<svg width="42" height="43" viewBox="0 0 42 43" fill="none" xmlns="http://www.w3.org/2000/svg">
<path d="M14 7.5H10.5C8.567 7.5 7 9.067 7 11V32C7 33.933 8.567 35.5 10.5 35.5H31.5C33.433 35.5 35 33.933 35 32V11C35 9.067 33.433 7.5 31.5 7.5H28M21 5.75V19.75M21 19.75L26.25 14.5M21 19.75L15.75 14.5M7 23.25H11.5251C11.9893 23.25 12.4344 23.4344 12.7626 23.7626L16.9874 27.9874C17.3156 28.3156 17.7607 28.5 18.2249 28.5H23.7751C24.2393 28.5 24.6844 28.3156 25.0126 27.9874L29.2374 23.7626C29.5656 23.4344 30.0107 23.25 30.4749 23.25H35" stroke="#9983B0" stroke-width="3" stroke-linecap="round" stroke-linejoin="round"/>
</svg>
