<svg width="24" height="23" viewBox="0 0 24 23" fill="none" xmlns="http://www.w3.org/2000/svg">
<path d="M10.77 1.81663C11.1368 1.07346 12.1965 1.07346 12.5634 1.81663L15.0392 6.83242C15.1848 7.12727 15.4659 7.33173 15.7913 7.37929L21.3295 8.18878C22.1495 8.30863 22.4762 9.31647 21.8827 9.89463L17.8768 13.7963C17.6409 14.0261 17.5333 14.3572 17.5889 14.6817L18.5341 20.1926C18.6742 21.0096 17.8167 21.6326 17.083 21.2467L12.1321 18.6431C11.8407 18.4899 11.4926 18.4899 11.2012 18.6431L6.2503 21.2467C5.51667 21.6326 4.65912 21.0096 4.79924 20.1926L5.74442 14.6817C5.80008 14.3572 5.69242 14.0261 5.45654 13.7963L1.45068 9.89463C0.857086 9.31647 1.18387 8.30863 2.00378 8.18878L7.54203 7.37929C7.86739 7.33173 8.14857 7.12727 8.29411 6.83242L10.77 1.81663Z" stroke="#FFB800" stroke-width="1.3" stroke-linecap="round" stroke-linejoin="round"/>
<path fill-rule="evenodd" clip-rule="evenodd" d="M12 1.05513C11.5548 0.898118 11.0135 1.06226 10.769 1.54757L8.2382 6.57008C8.09109 6.86204 7.81054 7.06366 7.48691 7.11L1.86034 7.91563C1.03402 8.03395 0.707812 9.0528 1.31175 9.62904L5.35503 13.4869C5.59678 13.7175 5.70735 14.0537 5.64972 14.3828L4.69213 19.8522C4.54958 20.6664 5.4003 21.2922 6.13512 20.9136L11.204 18.3023C11.4523 18.1744 11.7408 18.157 12 18.2501V1.05513Z" fill="#FFB800"/>
</svg>
