<svg width="20" height="20" viewBox="0 0 20 20" fill="none" xmlns="http://www.w3.org/2000/svg">
<g clip-path="url(#clip0_260_1499)">
<path d="M9.05249 2.80812C9.35854 1.90107 10.6415 1.90107 10.9475 2.80813L12.0773 6.15642C12.2132 6.55905 12.5886 6.83186 13.0135 6.83664L16.5471 6.87645C17.5043 6.88723 17.9008 8.10736 17.1327 8.67873L14.2974 10.7879C13.9564 11.0415 13.813 11.4829 13.9398 11.8885L14.9938 15.2614C15.2794 16.1751 14.2415 16.9292 13.4607 16.3753L10.5786 14.3305C10.2321 14.0846 9.76794 14.0846 9.42136 14.3305L6.53928 16.3753C5.75852 16.9292 4.72062 16.1751 5.00617 15.2614L6.06023 11.8885C6.18699 11.4829 6.04357 11.0415 5.70262 10.7879L2.86732 8.67873C2.09924 8.10736 2.49568 6.88723 3.45292 6.87645L6.98646 6.83664C7.41137 6.83186 7.78685 6.55905 7.92271 6.15642L9.05249 2.80812Z" stroke="#FBB03B" stroke-width="2"/>
</g>
<defs>
<clipPath id="clip0_260_1499">
<rect width="20" height="20" fill="white"/>
</clipPath>
</defs>
</svg>
