<svg width="22" height="21" viewBox="0 0 22 21" fill="none" xmlns="http://www.w3.org/2000/svg">
<path d="M10.103 1.14988C10.4698 0.406715 11.5295 0.406714 11.8964 1.14988L14.3722 6.16568C14.5178 6.46052 14.799 6.66498 15.1243 6.71254L20.6626 7.52204C21.4825 7.64188 21.8093 8.64972 21.2157 9.22788L17.2098 13.1296C16.9739 13.3593 16.8663 13.6905 16.9219 14.015L17.8671 19.5259C18.0072 20.3428 17.1497 20.9658 16.416 20.58L11.4651 17.9764C11.1737 17.8231 10.8256 17.8231 10.5342 17.9764L5.58331 20.58C4.84968 20.9658 3.99213 20.3428 4.13225 19.5259L5.07743 14.015C5.13309 13.6905 5.02543 13.3593 4.78955 13.1296L0.783688 9.22788C0.190094 8.64972 0.516877 7.64188 1.33679 7.52204L6.87504 6.71254C7.2004 6.66498 7.48158 6.46052 7.62712 6.16568L10.103 1.14988Z" fill="#FFB800"/>
</svg>
