<svg width="22" height="21" viewBox="0 0 22 21" fill="none" xmlns="http://www.w3.org/2000/svg">
<path d="M9.76996 0.816631C10.1368 0.0734632 11.1965 0.0734622 11.5634 0.81663L14.0392 5.83242C14.1848 6.12727 14.4659 6.33173 14.7913 6.37929L20.3295 7.18878C21.1495 7.30863 21.4762 8.31647 20.8827 8.89463L16.8768 12.7963C16.6409 13.0261 16.5333 13.3572 16.5889 13.6817L17.5341 19.1926C17.6742 20.0096 16.8167 20.6326 16.083 20.2467L11.1321 17.6431C10.8407 17.4899 10.4926 17.4899 10.2012 17.6431L5.2503 20.2467C4.51667 20.6326 3.65912 20.0096 3.79924 19.1926L4.74442 13.6817C4.80008 13.3572 4.69242 13.0261 4.45654 12.7963L0.45068 8.89463C-0.142914 8.31647 0.183869 7.30863 1.00378 7.18878L6.54203 6.37929C6.86739 6.33173 7.14857 6.12727 7.29411 5.83242L9.76996 0.816631Z" fill="#FFB800"/>
</svg>
