<svg width="33" height="32" viewBox="0 0 33 32" fill="none" xmlns="http://www.w3.org/2000/svg">
<path d="M18.1508 9.60005C18.1508 12.251 15.9346 14.4 13.2008 14.4C10.467 14.4 8.25078 12.251 8.25078 9.60005C8.25078 6.94908 10.467 4.80005 13.2008 4.80005C15.9346 4.80005 18.1508 6.94908 18.1508 9.60005Z" fill="#9983B0"/>
<path d="M23.1008 27.2001C23.1008 21.8981 18.6684 17.6 13.2008 17.6C7.73316 17.6 3.30078 21.8981 3.30078 27.2001H23.1008Z" fill="#9983B0"/>
<path d="M21.4508 12.8C20.5395 12.8 19.8008 13.5164 19.8008 14.4C19.8008 15.2837 20.5395 16 21.4508 16H28.0508C28.962 16 29.7008 15.2837 29.7008 14.4C29.7008 13.5164 28.962 12.8 28.0508 12.8H21.4508Z" fill="#9983B0"/>
</svg>
