<svg width="16" height="17" viewBox="0 0 16 17" fill="none" xmlns="http://www.w3.org/2000/svg">
<path d="M8 3.40278C8.48863 2.84917 9.20354 2.5 10 2.5C11.4728 2.5 12.6667 3.69391 12.6667 5.16667C12.6667 6.63943 11.4728 7.83333 10 7.83333C9.20354 7.83333 8.48863 7.48416 8 6.93055M10 14.5H2V13.8333C2 11.6242 3.79086 9.83333 6 9.83333C8.20914 9.83333 10 11.6242 10 13.8333V14.5ZM10 14.5H14V13.8333C14 11.6242 12.2091 9.83333 10 9.83333C9.27143 9.83333 8.58835 10.0281 8 10.3685M8.66667 5.16667C8.66667 6.63943 7.47276 7.83333 6 7.83333C4.52724 7.83333 3.33333 6.63943 3.33333 5.16667C3.33333 3.69391 4.52724 2.5 6 2.5C7.47276 2.5 8.66667 3.69391 8.66667 5.16667Z" stroke="#9983B0" stroke-linecap="round" stroke-linejoin="round"/>
</svg>
